<?xml version="1.0" encoding="UTF-8"?>
<svg id="_레이어_2" data-name="레이어 2" xmlns="http://www.w3.org/2000/svg" viewBox="0 0 326.95 46.43">
  <defs>
    <style>
      .cls-1 {
        fill: #fff;
      }
    </style>
  </defs>
  <g id="Layer_1" data-name="Layer 1">
    <g>
      <g>
        <g>
          <polygon class="cls-1" points="51.8 .62 67.43 .62 41.53 46.14 25.9 46.14 51.8 .62"/>
          <rect class="cls-1" x="25.9" y=".62" width="15.63" height="45.52"/>
          <polygon class="cls-1" points="25.9 .62 41.53 .62 15.63 46.14 0 46.14 25.9 .62"/>
          <rect class="cls-1" y="7.38" width="15.63" height="38.76"/>
        </g>
        <polygon class="cls-1" points="140.38 14.14 140.38 .62 85.2 .62 111.1 46.14 140.38 46.14 140.38 31.91 118.63 31.91 108.52 14.14 140.38 14.14"/>
        <g>
          <polygon class="cls-1" points="76.3 13.7 68.46 27.47 84.13 27.47 76.3 13.7"/>
          <polygon class="cls-1" points="57.84 46.14 61.58 39.56 91.01 39.56 94.75 46.14 57.84 46.14"/>
        </g>
      </g>
      <g>
        <path class="cls-1" d="M163.24,28.9l.25,2.48c-1.53.35-3.22.58-4.92.74v3.91h-3.58v-3.67c-1.86.07-3.61.07-5,.07l-.34-2.79c3.48,0,9.31-.07,13.6-.74ZM156.62,20.66c3.48.01,5.87,1.52,5.87,3.99s-2.39,4-5.87,4-5.87-1.58-5.87-4,2.36-3.98,5.87-3.99ZM153.98,37.01h3.71v1.78h11.62v-1.78h3.73v9.12h-19.06v-9.12ZM156.62,26.05c1.53-.01,2.54-.44,2.55-1.4-.01-.96-1.02-1.41-2.55-1.4-1.56-.01-2.49.43-2.49,1.4s.92,1.39,2.49,1.4ZM169.32,43.24v-1.61h-11.62v1.61h11.62ZM160.35,32.74h4.01v-12.55h3.52v15.93h-3.52v-.89h-4.01v-2.5ZM173.04,36.17h-3.58v-16.43h3.58v16.43Z"/>
        <path class="cls-1" d="M199.57,37.08h-10.03v3.92h-3.7v-3.92h-10.66v-2.97h24.39v2.97ZM178.04,38.74h3.73v4.21h15.12v3.01h-18.85v-7.22ZM178.21,20.62h18.48v2.9h-14.75v1.66h14.13v2.81h-14.13v1.69h14.98v2.89h-18.71v-11.95Z"/>
        <path class="cls-1" d="M212.53,31.29c-.01,6.01-2.33,9.71-5.9,9.7-3.51,0-5.8-3.69-5.79-9.7-.01-5.96,2.28-9.64,5.79-9.64s5.88,3.68,5.9,9.64ZM206.63,37.41c1.54,0,2.46-2,2.46-6.11s-.91-6.11-2.46-6.1c-1.49-.01-2.37,2.03-2.35,6.1-.02,4.11.86,6.12,2.35,6.11ZM214.21,20.15h3.53v9.78h2.4v-10.2h3.57v26.69h-3.57v-13.45h-2.4v12.22h-3.53v-25.04Z"/>
        <path class="cls-1" d="M227.44,22.3h3.7v14.35c3.59-.06,7.47-.39,11.39-1.16l.47,3.09c-4.67.97-9.09,1.27-13.2,1.26h-2.35v-17.54ZM248.43,46.43h-3.72v-26.69h3.72v26.69Z"/>
        <path class="cls-1" d="M266.6,25.51h-5.37c.04,2.72,1.95,5.43,6.24,6.55l-1.72,2.95c-3.01-.81-5.12-2.51-6.33-4.65-1.17,2.44-3.3,4.37-6.42,5.29l-1.8-2.92c4.29-1.18,6.28-4.19,6.31-7.22h-5.37v-2.95h5.37v-2.91h3.77v2.91h5.33v2.95ZM263.81,36.33c5.58,0,9,1.84,9,5.07s-3.42,5-9,4.99c-5.67,0-9.14-1.82-9.13-4.99,0-3.22,3.46-5.06,9.13-5.07ZM263.81,43.58c3.47,0,5.32-.71,5.32-2.19s-1.84-2.18-5.32-2.18-5.4.66-5.39,2.18c0,1.47,1.86,2.18,5.39,2.19ZM268.82,19.74h3.75v6.33h3.58v3.03h-3.58v6.75h-3.75v-16.1Z"/>
        <path class="cls-1" d="M291.97,24.3h-5.33c.01,3.13,1.9,6.32,6.21,7.72l-1.9,2.88c-2.95-.95-4.98-2.86-6.15-5.23-1.19,2.6-3.32,4.67-6.41,5.69l-1.98-2.88c4.4-1.43,6.4-4.84,6.46-8.17h-5.45v-2.98h14.55v2.98ZM280.01,36.98h17.96v9.45h-3.75v-6.46h-14.21v-2.98ZM294.22,19.74h3.75v6.49h3.58v3.11h-3.58v6.51h-3.75v-16.1Z"/>
        <path class="cls-1" d="M306.87,37.93v-7.87h3.68v7.76c2.62-.11,5.28-.3,7.74-.61l.22,2.77c-5.47.93-11.51,1.03-16.18,1.01l-.35-2.98c1.5,0,3.16-.02,4.9-.06ZM317.19,24.56c-.01,2.51-.01,5.79-.73,10.23l-3.68-.29c.61-3.88.67-6.73.68-9.1h-10.1v-2.98h13.82v2.14ZM319.54,19.74h3.77v10.72h3.64v3.13h-3.64v12.84h-3.77v-26.69Z"/>
      </g>
      <g>
        <path class="cls-1" d="M152.65,1.52h4.62v1.22h-3.1v5.5c1.35,0,2.45-.08,3.71-.32l.12,1.25c-1.5.3-2.8.34-4.51.35h-.84V1.52ZM162.9,12.41h-1.44v-6.29h-1.39v5.68h-1.4V.29h1.4v4.6h1.39V.06h1.44v12.35Z"/>
        <path class="cls-1" d="M174,1.91c0,1.16,0,2.42-.33,4.17h1.71v1.24h-4.91v5.11h-1.53v-5.11h-4.82v-1.24h8.02c.34-1.68.35-2.94.35-4.05h-7.04V.81h8.55v1.1Z"/>
        <path class="cls-1" d="M180.84,2.59h-4.28v-1.25h5.82c0,3.63-1.51,6.83-5.63,8.85l-.86-1.17c3.01-1.51,4.63-3.61,4.93-6.42ZM185.65,4.89h1.83v1.26h-1.83v6.25h-1.52V.06h1.52v4.83Z"/>
        <path class="cls-1" d="M197.84,4.87h-3.63v.84h4.87v1.13h-11.22v-1.13h4.83v-.84h-3.43V.27h8.5v1.06h-6.98v.72h6.67v1.02h-6.67v.75h7.07v1.06ZM189.15,7.51h8.54v2.87h-7.03v.83h7.37v1.1h-8.86v-2.97h7.02v-.75h-7.04v-1.08Z"/>
        <path class="cls-1" d="M200.3.77h5.7v3.66h-4.19v1.39c2.11-.01,3.63-.08,5.4-.35l.19,1.22c-1.95.31-3.63.37-6.03.37h-1.05v-3.8h4.17v-1.27h-4.2V.77ZM201.54,8.21h8.43v4.2h-1.52v-2.96h-6.91v-1.24ZM209.97,7.63h-1.52V.07h1.52v7.56Z"/>
        <path class="cls-1" d="M211.91,1.52h4.62v1.22h-3.1v5.5c1.35,0,2.45-.08,3.71-.32l.12,1.25c-1.5.3-2.8.34-4.51.35h-.84V1.52ZM222.16,12.41h-1.44v-6.29h-1.39v5.68h-1.4V.29h1.4v4.6h1.39V.06h1.44v12.35Z"/>
        <path class="cls-1" d="M230.73,2.44h-7.34v-1.2h2.92V0h1.51v1.24h2.91v1.2ZM227.07,2.92c1.78,0,3.01.91,3.01,2.26,0,1.35-1.23,2.26-3.01,2.26s-3.04-.91-3.04-2.26c0-1.35,1.24-2.26,3.04-2.26ZM224.9,8.37h8.24v4.04h-1.53v-2.82h-6.71v-1.22ZM227.07,6.27c.93,0,1.56-.39,1.57-1.08,0-.7-.64-1.11-1.57-1.11-.94,0-1.57.41-1.56,1.11,0,.7.62,1.09,1.56,1.08ZM231.61.06h1.53v3.28h1.73v1.24h-1.73v3.21h-1.53V.06Z"/>
        <path class="cls-1" d="M235.23,9.58h2.53v-3.95h1.52v3.95h1.57v-3.95h1.49v3.95h4.16v1.25h-11.27v-1.25ZM245.38,2.45c0,1.53,0,3.2-.46,5.63l-1.49-.15c.42-2.29.42-3.98.42-5.48v-.04h-7.48v-1.22h9.01v1.26Z"/>
      </g>
    </g>
  </g>
</svg>